<svg id="Ebene_1" data-name="Ebene 1" xmlns="http://www.w3.org/2000/svg" viewBox="0 0 425.2 425.2">
  <defs>
    <style>
      .cls-1 {
        fill: #76b828;
      }

      .cls-2 {
        fill: #fff;
      }
    </style>
  </defs>
  <title>univention_ucs_icon_univention_corporate_server_open_sans_cond</title>
  <path class="cls-1" d="M354.34,0H141.73A70.87,70.87,0,0,0,70.86,70.8H70.8v.07A70.87,70.87,0,0,0,0,141.73v212.6A70.86,70.86,0,0,0,70.86,425.2H283.47a70.87,70.87,0,0,0,70.87-70.87,70.87,70.87,0,0,0,70.86-70.9V70.86A70.87,70.87,0,0,0,354.34,0"/>
  <g>
    <path class="cls-2" d="M121.25,248.27c0,14.38-2.54,25.21-7.55,32.19-4.61,6.41-11.34,9.54-20.57,9.54-9.39,0-16.35-3.16-21.27-9.67-5.27-6.95-7.93-17.57-7.93-31.57V120.57H38.13V247.29c0,20.82,4.66,37.2,13.86,48.71,9.53,11.93,23.37,18,41.14,18,24.53,0,53.78-11.57,53.78-66.68V120.57H121.25Z"/>
    <path class="cls-2" d="M237.48,141.73A43.9,43.9,0,0,1,260,147.47l5.43,3.17,12.34-21.41-5.5-3.1c-9.87-5.55-21.47-8.37-34.49-8.37-21.34,0-38.41,9.13-50.75,27.13-11.82,17.27-17.81,41-17.81,70.67,0,19.68,2.7,37,8,51.54,5.48,14.91,13.46,26.54,23.7,34.56A57.85,57.85,0,0,0,237.48,314c12.32,0,22.56-2.09,30.42-6.2l3.36-1.74v-24.5l-8.84,4c-6.49,3-14.47,4.45-23.73,4.45a32.46,32.46,0,0,1-22.1-8.24c-6.62-5.73-11.83-14.22-15.48-25.21-3.8-11.41-5.72-25.12-5.72-40.74,0-23.86,4.09-42.62,12.17-55.75C215.13,147.73,224.92,141.73,237.48,141.73Z"/>
    <path class="cls-2" d="M378.91,226.05c-6.75-8.63-17.34-16.18-31.37-22.38-14.76-6.85-20.93-12.17-23.52-15.43-3.47-4.38-5.23-10.92-5.23-19.43,0-8.19,2.36-14.5,7.22-19.3s11.13-7.17,19.16-7.17a65.2,65.2,0,0,1,27.71,6.38l5.77,2.69,10.11-22.75L383.42,126a78.46,78.46,0,0,0-16-5.48A92.46,92.46,0,0,0,345.17,118,54.74,54.74,0,0,0,319,124.42a47.31,47.31,0,0,0-19,18.32,52.49,52.49,0,0,0-6.74,26.56c0,8.86,1.38,16.65,4.11,23.16A47.11,47.11,0,0,0,310.19,210c5.52,4.79,13.43,9.52,24.24,14.48,14.82,6.63,21.14,12.09,23.83,15.5,3.65,4.62,5.5,11.2,5.5,19.56,0,9.11-2.61,16.34-8,22.11S343.93,290,335.64,290a96.91,96.91,0,0,1-19.19-2A62,62,0,0,1,300.73,283l-9.07-4.59v27.18l3.74,1.64c10.22,4.48,23.76,6.75,40.24,6.75,15.46,0,28.44-5.2,38.56-15.47s15.23-23.7,15.23-40C389.43,245.94,385.89,235,378.91,226.05Z"/>
  </g>
</svg>