<?xml version="1.0" encoding="UTF-8" standalone="no"?>
<svg
   xmlns:dc="http://purl.org/dc/elements/1.1/"
   xmlns:cc="http://creativecommons.org/ns#"
   xmlns:rdf="http://www.w3.org/1999/02/22-rdf-syntax-ns#"
   xmlns:svg="http://www.w3.org/2000/svg"
   xmlns="http://www.w3.org/2000/svg"
   xmlns:sodipodi="http://sodipodi.sourceforge.net/DTD/sodipodi-0.dtd"
   xmlns:inkscape="http://www.inkscape.org/namespaces/inkscape"
   version="1.1"
   id="Layer_1"
   x="0px"
   y="0px"
   width="256.229px"
   height="48.191px"
   viewBox="4.463 0 256.229 48.191"
   enable-background="new 4.463 0 256.229 48.191"
   xml:space="preserve"
   sodipodi:docname="image.svg"
   inkscape:version="1.0.1 (3bc2e813f5, 2020-09-07, custom)"><metadata
   id="metadata212"><rdf:RDF><cc:Work
       rdf:about=""><dc:format>image/svg+xml</dc:format><dc:type
         rdf:resource="http://purl.org/dc/dcmitype/StillImage" /><dc:title></dc:title></cc:Work></rdf:RDF></metadata><defs
   id="defs210"><clipPath
     clipPathUnits="userSpaceOnUse"
     id="clipPath1132"><path
       fill="#db901b"
       d="m 36.452,30.744 c 8.03,0 14.542,-6.513 14.542,-14.542 0,-8.031 -6.512,-14.541 -14.542,-14.541 -8.031,0 -14.54,6.51 -14.54,14.541 0,0.91 0.084,1.8 0.244,2.664 l -0.071,0.071 c 0.961,5.102 4.575,9.254 9.357,11 l 0.06,-0.061 c 1.545,0.56 3.212,0.868 4.95,0.868 z m 4.357,-23.26 c 2.41,0 4.362,1.953 4.362,4.362 0,2.408 -1.953,4.361 -4.362,4.361 -2.409,0 -4.361,-1.954 -4.361,-4.361 0,-2.41 1.952,-4.362 4.361,-4.362 z"
       id="path1134" /></clipPath></defs><sodipodi:namedview
   pagecolor="#ffffff"
   bordercolor="#666666"
   borderopacity="1"
   objecttolerance="10"
   gridtolerance="10"
   guidetolerance="10"
   inkscape:pageopacity="0"
   inkscape:pageshadow="2"
   inkscape:window-width="1918"
   inkscape:window-height="1037"
   id="namedview208"
   showgrid="false"
   inkscape:snap-page="false"
   inkscape:snap-others="true"
   inkscape:snap-grids="true"
   inkscape:snap-to-guides="true"
   inkscape:zoom="1.6157421"
   inkscape:cx="95.621693"
   inkscape:cy="24.095501"
   inkscape:window-x="0"
   inkscape:window-y="42"
   inkscape:window-maximized="0"
   inkscape:current-layer="Layer_1" />
<g
   id="g205">
	
	<path
   fill="#428bca"
   d="M 50.994,0"
   id="path179" />
	<circle
   fill="none"
   cx="39.807999"
   cy="14.067"
   r="5.2870002"
   id="circle181" />
	
	
	<g
   id="g216"><path
     d="M 22.085,18.937 4.463,36.558 v 8.725 c 0,1.605 1.302,2.908 2.909,2.908 h 2.906 v -2.908 h 5.816 v -5.816 h 5.817 v -5.813 h 5.814 l 3.715,-3.715 c -4.78,-1.748 -8.393,-5.9 -9.355,-11.002 z"
     id="path201" /><path
     fill="#db901b"
     d="m 36.452,30.744 c 8.03,0 14.542,-6.513 14.542,-14.542 0,-8.031 -6.512,-14.541 -14.542,-14.541 -8.031,0 -14.54,6.51 -14.54,14.541 0,0.91 0.084,1.8 0.244,2.664 l -0.071,0.071 c 0.961,5.102 4.575,9.254 9.357,11 l 0.06,-0.061 c 1.545,0.56 3.212,0.868 4.95,0.868 z m 4.357,-23.26 c 2.41,0 4.362,1.953 4.362,4.362 0,2.408 -1.953,4.361 -4.362,4.361 -2.409,0 -4.361,-1.954 -4.361,-4.361 0,-2.41 1.952,-4.362 4.361,-4.362 z"
     id="path203" /><path
     fill="#db901b"
     d="m 36.452,30.744 c 8.03,0 14.542,-6.513 14.542,-14.542 0,-8.031 -6.512,-14.541 -14.542,-14.541 -8.031,0 -14.54,6.51 -14.54,14.541 0,0.91 0.084,1.8 0.244,2.664 l -0.071,0.071 c 0.961,5.102 4.575,9.254 9.357,11 l 0.06,-0.061 c 1.545,0.56 3.212,0.868 4.95,0.868 z m 4.357,-23.26 c 2.41,0 4.362,1.953 4.362,4.362 0,2.408 -1.953,4.361 -4.362,4.361 -2.409,0 -4.361,-1.954 -4.361,-4.361 0,-2.41 1.952,-4.362 4.361,-4.362 z"
     id="path300" /><path
     fill="#db901b"
     d="m 36.452,30.744 c 8.03,0 14.542,-6.513 14.542,-14.542 0,-8.031 -6.512,-14.541 -14.542,-14.541 -8.031,0 -14.54,6.51 -14.54,14.541 0,0.91 0.084,1.8 0.244,2.664 l -0.071,0.071 c 0.961,5.102 4.575,9.254 9.357,11 l 0.06,-0.061 c 1.545,0.56 3.212,0.868 4.95,0.868 z m 4.357,-23.26 c 2.41,0 4.362,1.953 4.362,4.362 0,2.408 -1.953,4.361 -4.362,4.361 -2.409,0 -4.361,-1.954 -4.361,-4.361 0,-2.41 1.952,-4.362 4.361,-4.362 z"
     id="path302"
     style="opacity:1" /><path
     d="M 22.085,18.937 4.463,36.558 v 8.725 c 0,1.605 1.302,2.908 2.909,2.908 h 2.906 v -2.908 h 5.816 v -5.816 h 5.817 v -5.813 h 5.814 l 3.715,-3.715 c -4.78,-1.748 -8.393,-5.9 -9.355,-11.002 z"
     id="path305"
     clip-path="url(#clipPath1132)" /></g>
</g>
</svg>
